Coordinates
version=1
nRows=17
nColumns=24
inDegrees=yes

Units are S.I. units (second, meters, Newtons, ...)
Angles are in degrees.

endheader
time	pelvis_tilt	pelvis_list	pelvis_rotation	pelvis_tx	pelvis_ty	pelvis_tz	hip_flexion_r	hip_adduction_r	hip_rotation_r	knee_angle_r	ankle_angle_r	subtalar_angle_r	mtp_angle_r	hip_flexion_l	hip_adduction_l	hip_rotation_l	knee_angle_l	ankle_angle_l	subtalar_angle_l	mtp_angle_l	lumbar_extension	lumbar_bending	lumbar_rotation
      0.91233333	     -0.57087551	     -1.99698502	     -2.17805188	     -0.17373958	      0.97852172	      0.30651534	    -10.02566768	      5.61985016	     -3.15442119	    -12.23670938	     15.18333892	      0.37132364	      0.99017771	     26.36742296	     -0.55248491	     -3.25888703	    -12.12421331	      0.51149766	     -3.97213103	     -3.06720921	     -2.53995337	      5.54397770	      7.53000792
      0.91650000	     -0.62160053	     -1.91249935	     -2.18969299	     -0.16789310	      0.97795744	      0.30620434	     -9.98522925	      5.48824131	     -3.07925273	    -12.92831149	     15.31012074	      0.25012088	      1.00798237	     26.25071225	     -0.38165823	     -3.20931651	    -12.10108061	      0.27554153	     -3.97765405	     -2.96767291	     -2.43836884	      5.43896015	      7.53198177
      0.92066667	     -0.71156939	     -1.82811120	     -2.19650725	     -0.16205501	      0.97738360	      0.30583092	     -9.84777858	      5.34599123	     -3.06806658	    -13.72012809	     15.36286239	      0.20416661	      1.08484117	     26.15991600	     -0.19161057	     -3.03323898	    -12.10244807	     -0.02472835	     -4.26439206	     -2.57824428	     -2.27655180	      5.35234164	      7.59449276
      0.92483333	     -0.79502553	     -1.75502736	     -2.20745683	     -0.15622972	      0.97685896	      0.30550564	     -9.69141484	      5.22489294	     -2.98088197	    -14.56711425	     15.48816371	      0.05082348	      1.14694038	     26.09332340	     -0.03123010	     -2.93942293	    -12.22241092	     -0.31291202	     -4.41184693	     -2.34825913	     -2.14482233	      5.27398535	      7.58814421
      0.92900000	     -0.88123292	     -1.65286034	     -2.21815776	     -0.15034790	      0.97640639	      0.30516106	     -9.50831604	      5.06985372	     -2.89528443	    -15.45390677	     15.52832223	     -0.10316813	      1.20824301	     25.99542038	      0.16421908	     -2.79767467	    -12.32511295	     -0.63308377	     -4.59780102	     -2.16360825	     -1.98457386	      5.15964485	      7.59030548
      0.93316667	     -0.98360648	     -1.56198818	     -2.20444028	     -0.14449808	      0.97594567	      0.30478159	     -9.26830081	      4.92820474	     -2.84425779	    -16.40762395	     15.49717055	     -0.25245714	      1.31874800	     25.94851302	      0.35785201	     -2.62118891	    -12.53183611	     -0.96452489	     -4.91874878	     -1.88786346	     -1.82622693	      5.05671476	      7.59464280
      0.93733333	     -1.04201579	     -1.41720471	     -2.19462868	     -0.13856068	      0.97563695	      0.30442640	     -9.06019012	      4.72770021	     -2.77856344	    -17.38708633	     15.40869394	     -0.44051018	      1.37825534	     25.82847062	      0.59425869	     -2.51638379	    -12.73072561	     -1.27772738	     -5.05908333	     -1.76595955	     -1.70245542	      4.87052933	      7.56711476
      0.94150000	     -1.16957194	     -1.32523401	     -2.19043547	     -0.13271188	      0.97526434	      0.30402740	     -8.70661661	      4.57898637	     -2.71503786	    -18.49492945	     15.33559141	     -0.59149846	      1.51059132	     25.77752160	      0.79014576	     -2.27032595	    -12.93765778	     -1.64147157	     -5.47688287	     -1.55134049	     -1.49378277	      4.78404234	      7.54845617
      0.94566667	     -1.21623717	     -1.17097986	     -2.14327365	     -0.12677587	      0.97502201	      0.30356061	     -8.41667999	      4.34409318	     -2.80350593	    -19.63456894	     15.14477825	     -0.58880905	      4.07560988	     25.65349976	      1.05822850	     -2.09365936	    -13.19562141	     -2.01831402	     -5.86857257	      1.91044609	     -1.38595825	      4.60042557	      7.49218293
      0.94983333	     -1.32276582	     -1.05265762	     -2.13711846	     -0.12089305	      0.97479802	      0.30320034	     -8.03483663	      4.17484092	     -2.68805825	    -20.81059095	     14.84749843	     -0.88112287	      4.12417702	     25.59100101	      1.26375169	     -1.92869728	    -13.47519659	     -2.34275606	     -6.18588016	      1.92086615	     -1.20558455	      4.45632919	      7.46111770
      0.95400000	     -1.42199820	     -0.91419279	     -2.10519321	     -0.11502210	      0.97460722	      0.30277299	     -7.60836798	      3.97175084	     -2.66011157	    -22.07655256	     14.54991889	     -1.06601398	      4.21932783	     25.52893889	      1.50234671	     -1.73973992	    -13.78304107	     -2.62818420	     -6.55427839	      1.94184369	     -1.04241748	      4.29777749	      7.40941463
      0.95816667	     -1.50458499	     -0.76211214	     -2.05935060	     -0.10915559	      0.97446754	      0.30230643	     -7.15677561	      3.74439212	     -2.67754657	    -23.40696513	     14.18058031	     -1.18119827	      4.38313772	     25.45789894	      1.76067914	     -1.54827388	    -14.12253917	     -2.89474605	     -6.97332819	      1.97337375	     -0.89728097	      4.11753266	      7.33958508
      0.96233333	     -1.59048761	     -0.59536370	     -2.01735195	     -0.10327884	      0.97437848	      0.30184039	     -6.65809377	      3.49353068	     -2.70882714	    -24.80292279	     13.71292773	     -1.29570249	      4.57873913	     25.37320729	      2.02769675	     -1.36414755	    -14.43941852	     -3.10916743	     -7.31761978	      2.00481169	     -0.73560452	      3.92258281	      7.25911770
      0.96650000	     -1.65595290	     -0.40396538	     -1.96536032	     -0.09740687	      0.97435649	      0.30134422	     -6.14105836	      3.20692116	     -2.77012440	    -26.25571956	     13.16248171	     -1.37840312	      4.81861321	     25.26831270	      2.32374675	     -1.18673095	    -14.76893989	     -3.28719281	     -7.68310949	      2.03459074	     -0.60386184	      3.69933936	      7.16995077
      0.97066667	     -1.68312756	     -0.20534555	     -1.86968725	     -0.09154909	      0.97438958	      0.30076012	     -5.63434720	      2.88702006	     -2.95135788	    -27.72424583	     12.34711551	     -1.31150494	     10.02919699	     25.13750884	      2.64830597	     -0.96052082	    -15.13732051	     -3.37892650	     -8.10113053	      2.51458266	     -0.53776677	      3.45829836	      7.06735704
      0.97483333	     -1.74530904	      0.00968048	     -1.83743502	     -0.08572317	      0.97444668	      0.30030648	     -5.02979118	      2.56747926	     -2.97610734	    -29.31073626	     11.69118613	     -1.52844679	     10.08471038	     25.02981824	      2.94578913	     -0.86496506	    -15.48001750	     -3.46228421	     -8.35766521	      2.51049497	     -0.40788649	      3.20569517	      6.96249739
      0.97900000	     -1.79590095	      0.23073767	     -1.76833289	     -0.07991753	      0.97453582	      0.29977132	     -4.40437100	      2.22362585	     -3.08344481	    -30.92629486	     10.86025364	     -1.58207045	     10.19594720	     24.91414757	      3.27042404	     -0.70733040	    -15.83891707	     -3.46916074	     -8.67390754	      2.50254127	     -0.30292461	      2.94423898	      6.85051837
